<?xml version="1.0" encoding="UTF-8"?>
<svg width="79.375mm" height="75.098mm" version="1.1" viewBox="0 0 79.375008 75.097557" xmlns="http://www.w3.org/2000/svg" xmlns:cc="http://creativecommons.org/ns#" xmlns:dc="http://purl.org/dc/elements/1.1/" xmlns:osb="http://www.openswatchbook.org/uri/2009/osb" xmlns:rdf="http://www.w3.org/1999/02/22-rdf-syntax-ns#">
<metadata>
<rdf:RDF>
<cc:Work rdf:about="">
<dc:format>image/svg+xml</dc:format>
<dc:title/>
</cc:Work>
</rdf:RDF>
</metadata>
<g transform="translate(-43.095 -47.417)">
<flowRoot transform="matrix(.20382 0 0 .19857 9.8837 30.57)" fill="#000000" font-family="sans-serif" font-size="40px" letter-spacing="0px" word-spacing="0px" style="line-height:1.25" xml:space="preserve"><flowRegion><rect x="228.57" y="679.66" width="20" height="31.429"/></flowRegion><flowPara>as</flowPara></flowRoot>
<flowRoot transform="matrix(.77036 0 0 .75049 9.8837 30.57)" fill="#000000" font-family="sans-serif" font-size="40px" letter-spacing="0px" word-spacing="0px" style="line-height:1.25" xml:space="preserve"><flowRegion><rect x="151.43" y="673.95" width="60" height="71.429"/></flowRegion><flowPara/></flowRoot>
<path d="m119.15 43.138c-0.0236 0.26422 2e-3 0.5234 0.0438 0.7839 0.0353 0.2051 0.0476 0.41268 0.0544 0.62022-0.0108 0.1995 0.0361 0.39335 0.0659 0.58931 0.0289 0.20243 0.0351 0.40688 0.0391 0.61094-0.0165 0.1811 0.0343 0.35347 0.0649 0.52994 0.0351 0.187 0.0211 0.37843 0.0503 0.56559 0.0427 0.19975 0.0669 0.40198 0.0808 0.60534-3e-3 0.21087 0.0264 0.41699 0.0567 0.62504 0.0337 0.22385 0.0465 0.44974 0.0537 0.67563 9e-3 0.19326 0.0562 0.38245 0.0784 0.57526 0.0173 0.20833 0.0196 0.41517 0.057 0.6212 0.0412 0.20257 0.0582 0.40828 0.0679 0.61421 0.0418 0.17017 0.0743 0.34105 0.0921 0.51521-2e-3 0.18116 0.0277 0.35386 0.0656 0.52999 0.0378 0.18553 0.0459 0.37482 0.0517 0.56336 3e-3 0.17491 0.0555 0.3442 0.079 0.51751 6e-3 0.19354 0.0381 0.38172 0.0731 0.57181 0.0249 0.13511 0.0362 0.2719 0.0456 0.40869l-1.5258 0.01005c-9e-3 -0.1313-0.0207-0.26258-0.0454-0.39216-0.036-0.19195-0.065-0.38288-0.0753-0.57796-0.0264-0.17779-0.0797-0.35258-0.0777-0.5333-6e-3 -0.17994-0.0149-0.36059-0.0536-0.53722-0.0391-0.18073-0.0609-0.36042-0.0646-0.54536-0.0199-0.17665-0.0615-0.34857-0.0905-0.52373-0.01-0.19979-0.027-0.3992-0.0671-0.59571-0.0361-0.20892-0.0386-0.41858-0.0568-0.62942-0.0243-0.19654-0.0782-0.38954-0.0785-0.5881-6e-3 -0.22014-0.0176-0.44042-0.0511-0.65848-0.0326-0.21173-0.0637-0.42164-0.06-0.63653-0.0141-0.1998-0.0403-0.39798-0.081-0.59442-0.0255-0.1862-0.0179-0.37533-0.0525-0.56082-0.0338-0.18339-0.0775-0.36468-0.0627-0.5528-4e-3 -0.19767-0.01-0.39577-0.0388-0.59177-0.0312-0.20146-0.0766-0.40146-0.0663-0.60658-7e-3 -0.20177-0.019-0.40344-0.0515-0.60309-0.0387-0.26796-0.0519-0.53511-0.0495-0.80578h1.5289z" opacity="0" stroke-width="4.8283" style="paint-order:fill markers stroke"/>
<path d="m118.45 48.887c0.0103-0.26828 0.0172-0.53546-0.0264-0.80098-0.0399-0.19973-0.0585-0.4021-0.0687-0.60504-0.0428-0.16772-0.0747-0.3365-0.0923-0.50847-0.0151-0.17142-0.0689-0.33612-0.0933-0.50705-2e-3 -0.17498-0.0581-0.34027-0.0901-0.51091-0.0312-0.19027-0.0354-0.38327-0.0388-0.57551-2e-3 -0.20058-2e-3 -0.40119-2e-3 -0.60178-0.0344-0.17014-0.0671-0.33964-0.0845-0.51238 4e-3 -0.1476-0.0337-0.28706-0.0656-0.42972 0 0 1.5285-0.03208 1.5285-0.03208 0.0334 0.14764 0.0635 0.29447 0.0646 0.44647 0.0198 0.1775 0.0615 0.35081 0.083 0.52791-2e-4 0.1996-7.7e-4 0.3992 2e-3 0.59879 4e-3 0.1839 8e-3 0.36869 0.0409 0.55031 0.035 0.17191 0.0839 0.3409 0.0897 0.51728 0.0272 0.17199 0.0824 0.33894 0.0929 0.51313 0.0198 0.17441 0.0612 0.34397 0.0911 0.51672 0.0102 0.19814 0.0301 0.39535 0.0653 0.5909 0.0371 0.27336 0.023 0.54735 0.0322 0.82242h-1.5289z" opacity="0" stroke-width="4.8283" style="paint-order:fill markers stroke"/>
<ellipse cx="80.971" cy="84.965" rx="35.44" ry="35.676" fill="none" stroke="#00aaa0" stroke-width="3.7458"/>
<g transform="matrix(.77036 0 0 .75049 6.9544 31.199)" fill="#00aaa0">
<path d="m81.266 78.035c-3.5859-3.4681-6.499-6.3679-6.4737-6.4439 0.02535-0.07602 2.9577-2.9534 6.5163-6.3942l6.4703-6.256 1.47 1.3809c0.80851 0.75948 1.47 1.4225 1.47 1.4734 0 0.0509-2.2443 2.265-4.9874 4.9203-2.7431 2.6553-4.9874 4.8699-4.9874 4.9213 0 0.05146 2.2443 2.2653 4.9874 4.9196 2.7431 2.6543 4.9874 4.8631 4.9874 4.9085 0 0.07623-0.75402 0.82338-2.3082 2.2872l-0.62495 0.58861z" style="paint-order:markers stroke fill"/>
<path d="m102.8 82.856-1.4462-1.4238 4.9997-4.8372c2.7499-2.6604 4.9997-4.897 4.9997-4.9701 0-0.07313-2.2519-2.3102-5.0042-4.9713l-5.0042-4.8383 1.4318-1.3895c0.78749-0.76423 1.4745-1.4056 1.5267-1.4253 0.12391-0.04667 13.064 12.466 13.06 12.629-3e-3 0.13333-12.911 12.658-13.041 12.653-0.0425-0.0016-0.72798-0.64346-1.5234-1.4265z" style="paint-order:markers stroke fill"/>
</g>
<g transform="matrix(1 0 0 1.0034 0 -.41164)" fill="#00aaa0">
<path d="m102.11 69.444c-7.1886-0.91335-18.687-2.3707-25.552-3.2385-25.397-3.2105-33.251-4.2138-33.272-4.2501-0.01155-0.0205-0.06031-0.35117-0.10834-0.7348l-0.08734-0.69752 0.68305 0.0019c0.37568 1e-3 4.3795 0.39183 8.8973 0.86847 7.8997 0.83344 29.466 3.0457 51.881 5.3218 5.8679 0.59585 12.064 1.2428 13.769 1.4377l3.1002 0.35437 0.0912 1.6857 0.0912 1.6857-3.2113-0.38702c-1.7662-0.21286-9.0929-1.1343-16.281-2.0476z" style="paint-order:fill markers stroke"/>
<path d="m102.86 59.588c-7.2359-0.35021-18.81-0.91398-25.719-1.2528-25.562-1.2535-33.469-1.6308-33.495-1.5985-0.0148 0.0182-0.11801 0.33555-0.22936 0.70522l-0.20244 0.67213 0.67337 0.11696c0.37036 0.06433 4.3808 0.37556 8.9122 0.69161 7.9233 0.55264 29.544 2.1235 52.011 3.779 5.8815 0.43338 12.095 0.87345 13.808 0.97794l3.114 0.18998 0.37109-1.6452 0.37108-1.6452-3.229-0.17714c-1.7759-0.09742-9.1492-0.46366-16.385-0.81389z" style="paint-order:fill markers stroke"/>
</g>
</g>
</svg>
